#!OML:ASF H:\Terrain\Walking\May29\JustinRory\Justin.ASF
:FULLY-SPECIFIED
:DEGREES
1255
root 6.7714 17.4422 0.834816 -181.967 -19.906 181.81
lowerback 6.71596 -2.05732 -0.819752
upperback 1.76967 -2.86238 1.7383
thorax -1.80699 -1.47222 2.48211
lowerneck -5.08348 -11.6559 -18.3039
upperneck 15.8083 -16.6825 11.3795
head 8.22235 -8.47857 4.92197
rclavicle -2.65874e-015 -4.17448e-015
rhumerus -34.0044 -22.8494 -72.4806
rradius 23.2448
rwrist -3.05901
rhand -17.1088 17.155
rfingers 7.12502
rthumb 9.13038 -12.6274
lclavicle -2.65874e-015 -4.17448e-015
lhumerus -39.4941 22.9444 62.7327
lradius 32.3695
lwrist 1.60656
lhand -5.03019 44.7226
lfingers 7.12502
lthumb 20.7644 73.6316
rfemur -14.491 4.52834 8.98546
rtibia 26.5148
rfoot -6.979 -7.85049
rtoes -5.96749
lfemur -3.69084 -7.15558 -10.3205
ltibia 27.5982
lfoot -19.8329 -1.68234
ltoes -24.8332
1256
root 6.82879 17.4441 0.77188 -181.825 -19.7575 182.391
lowerback 6.28086 -2.03829 -0.527605
upperback 1.54158 -2.80378 1.94497
thorax -1.80616 -1.43873 2.51362
lowerneck -5.09517 -11.417 -18.3264
upperneck 16.973 -16.5094 10.969
head 8.54925 -8.47149 4.8048
rclavicle -3.99433e-014 7.15625e-015
rhumerus -33.2798 -22.1131 -73.0621
rradius 23.2863
rwrist -3.09105
rhand -17.5958 17.0687
rfingers 7.12502
rthumb 8.66044 -12.7337
lclavicle -3.99433e-014 7.15625e-015
lhumerus -38.8043 22.4348 63.4449
lradius 32.7224
lwrist 0.801779
lhand -4.33485 43.9852
lfingers 7.12502
lthumb 21.4324 72.8197
rfemur -14.6275 4.35872 9.98434
rtibia 26.5731
rfoot -7.18386 -7.76919
rtoes -3.19364
lfemur -3.83606 -7.18046 -9.41541
ltibia 27.5046
lfoot -19.8814 -1.63267
ltoes -23.6903
1257
root 6.87504 17.4423 0.728429 -181.85 -19.5996 182.663
lowerback 6.25258 -1.9766 -0.288705
upperback 1.32763 -2.6948 1.9673
thorax -2.02567 -1.37845 2.3994
lowerneck -5.05677 -11.1364 -18.257
upperneck 18.4146 -16.3885 10.6003
head 8.96931 -8.50579 4.68069
rclavicle 2.43263e-014 -2.98177e-014
rhumerus -32.6703 -21.3891 -73.6485
rradius 23.2703
rwrist -3.17886
rhand -17.0642 17.4338
rfingers 7.12502
rthumb 9.17337 -12.3467
lclavicle 2.43263e-014 -2.98177e-014
lhumerus -38.1927 21.6842 64.2062
lradius 33.2875
lwrist 0.70971
lhand -4.24048 43.7077
lfingers 7.12502
lthumb 21.523 72.5319
rfemur -14.5126 4.1169 10.5834
rtibia 26.7282
rfoot -7.22045 -7.20886
rtoes -0.843439
lfemur -3.72135 -7.69337 -9.01763
ltibia 27.4785
lfoot -19.8311 -1.07492
ltoes -22.9357
1258
root 6.9285 17.4438 0.689137 -181.666 -19.4688 182.637
lowerback 6.14114 -1.88895 -0.313196
upperback 1.22891 -2.57209 1.81552
thorax -2.07641 -1.31184 2.24518
lowerneck -4.89807 -10.9568 -17.7332
upperneck 19.3692 -16.3904 10.2099
head 9.18239 -8.56117 4.4739
rclavicle 2.57426e-014 1.49089e-015
rhumerus -31.5939 -20.9457 -74.4735
rradius 22.9609
rwrist -3.29988
rhand -16.858 18.0353
rfingers 7.12502
rthumb 9.37231 -11.7363
lclavicle 2.57426e-014 1.49089e-015
lhumerus -37.1378 20.7916 65.1074
lradius 33.8433
lwrist 1.18905
lhand -5.00686 43.4237
lfingers 7.12502
lthumb 20.7868 72.3303
rfemur -14.7483 4.22202 10.811
rtibia 26.9728
rfoot -7.2368 -6.97733
rtoes -0.708263
lfemur -3.7596 -8.10618 -8.9118
ltibia 27.4342
lfoot -19.6975 -0.273753
ltoes -24.71
1259
root 6.98472 17.4416 0.647835 -181.6 -19.2399 182.774
lowerback 6.19239 -1.8515 -0.215866
upperback 1.09664 -2.50892 1.75966
thorax -2.25042 -1.27627 2.13381
lowerneck -4.01595 -10.6226 -17.7537
upperneck 19.6246 -16.2882 10.4621
head 9.11356 -8.5742 4.63111
rclavicle 2.86561e-014 6.06293e-015
rhumerus -30.5164 -20.4939 -75.1987
rradius 22.6078
rwrist -2.91062
rhand -17.1424 18.1156
rfingers 7.12502
rthumb 9.09791 -11.6682
lclavicle 2.86561e-014 6.06293e-015
lhumerus -36.3044 20.2908 65.713
lradius 34.3217
lwrist 0.889037
lhand -4.61516 42.7222
lfingers 7.12502
lthumb 21.1631 71.5871
rfemur -15.1152 4.5576 11.1722
rtibia 27.2932
rfoot -7.27068 -6.91745
rtoes -1.31211
lfemur -3.65445 -8.21588 -8.6239
ltibia 27.2817
lfoot -19.5406 0.581058
ltoes -27.0493
1260
root 7.03707 17.4244 0.596995 -181.659 -18.8001 182.998
lowerback 6.22058 -1.7627 -0.0879375
upperback 0.955666 -2.3759 1.82959
thorax -2.41859 -1.2078 2.1285
lowerneck -5.89818 -10.1573 -17.5407
upperneck 22.5954 -15.729 9.68087
head 10.3336 -8.40422 4.28871
rclavicle -3.48743e-014 -1.49089e-015
rhumerus -29.5157 -19.7911 -75.7687
rradius 22.3692
rwrist -2.52265
rhand -17.4167 17.1948
rfingers 7.12502
rthumb 8.83321 -12.6004
lclavicle -3.48743e-014 -1.49089e-015
lhumerus -35.6994 20.3238 66.179
lradius 34.7857
lwrist -0.0900323
lhand -3.64982 42.0724
lfingers 7.12502
lthumb 22.0902 70.8306
rfemur -15.452 4.81215 11.6073
rtibia 27.7241
rfoot -7.40751 -6.37569
rtoes 0.389387
lfemur -3.22093 -8.3961 -8.30344
ltibia 27.0124
lfoot -19.2968 1.69611
ltoes -28.6571
1261
root 7.08535 17.4145 0.532395 -181.682 -18.3554 182.923
lowerback 6.03763 -1.63335 -0.263072
upperback 0.990387 -2.21601 1.80655
thorax -2.28082 -1.12735 2.18261
lowerneck -7.03091 -9.77758 -17.2267
upperneck 24.6269 -15.3248 9.09424
head 11.1554 -8.29769 4.02425
rclavicle -2.27049e-014 -2.36554e-014
rhumerus -28.2945 -19.528 -76.2639
rradius 22.0501
rwrist -2.24974
rhand -16.6723 17.1997
rfingers 7.12502
rthumb 9.55157 -12.5638
lclavicle -2.27049e-014 -2.36554e-014
lhumerus -34.8106 20.2313 66.9405
lradius 35.4158
lwrist -0.486451
lhand -3.68923 42.0986
lfingers 7.12502
lthumb 22.0524 70.8613
rfemur -15.661 4.82354 11.7692
rtibia 28.1798
rfoot -7.60833 -5.62308
rtoes 2.31243
lfemur -2.64951 -8.63764 -8.34965
ltibia 26.7875
lfoot -19.0172 2.97082
ltoes -30.4888
